# xmcd CD database file
#
# Track frame offsets:
#	150
#	34182
#	56975
#	91375
#	114900
#	138900
#	167125
#	203855
#	219882
#	261977
#
# Disc length: 3789 seconds
#
# Revision: 0
# Processed by: cddbd v1.5PL3 Copyright (c) Steve Scherf et al.
# Submitted via: CDex 1.50
#
DISCID=8e0ecb0a
DTITLE=McCoy Tyner - McCoy Tyner
DYEAR=1997
DGENRE=Jazz
TTITLE0=Song For My Lady
TTITLE1=Impressions
TTITLE2=Aisha
TTITLE3=Hymn-Song
TTITLE4=I Wanna Stand Over There
TTITLE5=Prelude In E Minor Op 28 No 4
TTITLE6=Genesis
TTITLE7=Mr PC
TTITLE8=Pursuit
TTITLE9=Ev'ry Time We Say Goodbye
EXTD=YEAR: 1997
EXTT0=
EXTT1=
EXTT2=
EXTT3=
EXTT4=
EXTT5=
EXTT6=
EXTT7=
EXTT8=
EXTT9=
PLAYORDER=
